<mxfile host="app.diagrams.net" modified="2022-08-24T15:51:50.350Z" agent="5.0 (Macintosh; Intel Mac OS X 10_15_7) AppleWebKit/605.1.15 (KHTML, like Gecko) Version/16.0 Safari/605.1.15" etag="W0d-nqB8kqfGEjn_G7XY" version="20.2.6" type="github">
  <diagram id="V1wb2GM_vianm_ZzUQRP" name="Page-1">
    <mxGraphModel dx="998" dy="1137" grid="1" gridSize="10" guides="1" tooltips="1" connect="1" arrows="1" fold="1" page="1" pageScale="1" pageWidth="850" pageHeight="1100" math="0" shadow="0">
      <root>
        <mxCell id="0" />
        <mxCell id="1" parent="0" />
        <mxCell id="-bUKo2dn0ouei72gZbrO-6" value="Problem Detected" style="rounded=0;whiteSpace=wrap;html=1;" parent="1" vertex="1">
          <mxGeometry x="415" y="40" width="120" height="60" as="geometry" />
        </mxCell>
        <mxCell id="-bUKo2dn0ouei72gZbrO-7" value="Problem Logged" style="rounded=0;whiteSpace=wrap;html=1;" parent="1" vertex="1">
          <mxGeometry x="415" y="140" width="120" height="60" as="geometry" />
        </mxCell>
        <mxCell id="-bUKo2dn0ouei72gZbrO-8" value="Problem Categorized" style="rounded=0;whiteSpace=wrap;html=1;" parent="1" vertex="1">
          <mxGeometry x="415" y="250" width="120" height="60" as="geometry" />
        </mxCell>
        <mxCell id="-bUKo2dn0ouei72gZbrO-9" value="Problem Prioritized" style="rounded=0;whiteSpace=wrap;html=1;" parent="1" vertex="1">
          <mxGeometry x="415" y="340" width="120" height="60" as="geometry" />
        </mxCell>
        <mxCell id="-bUKo2dn0ouei72gZbrO-10" value="Problem Investigation and Diagnosis" style="rounded=0;whiteSpace=wrap;html=1;" parent="1" vertex="1">
          <mxGeometry x="415" y="440" width="120" height="60" as="geometry" />
        </mxCell>
        <mxCell id="-bUKo2dn0ouei72gZbrO-11" value="Work around?" style="rhombus;whiteSpace=wrap;html=1;" parent="1" vertex="1">
          <mxGeometry x="435" y="560" width="80" height="80" as="geometry" />
        </mxCell>
        <mxCell id="-bUKo2dn0ouei72gZbrO-12" value="Implement Workaround" style="rounded=0;whiteSpace=wrap;html=1;" parent="1" vertex="1">
          <mxGeometry x="605" y="570" width="120" height="60" as="geometry" />
        </mxCell>
        <mxCell id="-bUKo2dn0ouei72gZbrO-13" value="Create Known Error Record" style="rounded=0;whiteSpace=wrap;html=1;" parent="1" vertex="1">
          <mxGeometry x="415" y="710" width="120" height="60" as="geometry" />
        </mxCell>
        <mxCell id="-bUKo2dn0ouei72gZbrO-14" value="Change Needed" style="rhombus;whiteSpace=wrap;html=1;" parent="1" vertex="1">
          <mxGeometry x="435" y="830" width="80" height="80" as="geometry" />
        </mxCell>
        <mxCell id="-bUKo2dn0ouei72gZbrO-15" value="Change Management" style="verticalLabelPosition=middle;verticalAlign=top;html=1;shape=offPageConnector;rounded=0;size=0.5;" parent="1" vertex="1">
          <mxGeometry x="600" y="830" width="130" height="80" as="geometry" />
        </mxCell>
        <mxCell id="-bUKo2dn0ouei72gZbrO-16" value="Problem Resolution" style="rounded=0;whiteSpace=wrap;html=1;" parent="1" vertex="1">
          <mxGeometry x="415" y="960" width="120" height="60" as="geometry" />
        </mxCell>
        <mxCell id="-bUKo2dn0ouei72gZbrO-17" value="Problem Closure" style="rounded=0;whiteSpace=wrap;html=1;" parent="1" vertex="1">
          <mxGeometry x="415" y="1060" width="120" height="60" as="geometry" />
        </mxCell>
        <mxCell id="-bUKo2dn0ouei72gZbrO-18" value="Major Problem" style="rhombus;whiteSpace=wrap;html=1;" parent="1" vertex="1">
          <mxGeometry x="435" y="1170" width="80" height="80" as="geometry" />
        </mxCell>
        <mxCell id="-bUKo2dn0ouei72gZbrO-19" value="Known Errors in Enterprise" style="strokeWidth=2;html=1;shape=mxgraph.flowchart.database;whiteSpace=wrap;" parent="1" vertex="1">
          <mxGeometry x="240" y="560" width="105" height="80" as="geometry" />
        </mxCell>
        <mxCell id="-bUKo2dn0ouei72gZbrO-20" value="" style="endArrow=classic;html=1;rounded=0;" parent="1" source="-bUKo2dn0ouei72gZbrO-19" target="-bUKo2dn0ouei72gZbrO-11" edge="1">
          <mxGeometry width="50" height="50" relative="1" as="geometry">
            <mxPoint x="1050" y="410" as="sourcePoint" />
            <mxPoint x="1100" y="360" as="targetPoint" />
          </mxGeometry>
        </mxCell>
        <mxCell id="-bUKo2dn0ouei72gZbrO-21" value="" style="endArrow=classic;html=1;rounded=0;" parent="1" source="-bUKo2dn0ouei72gZbrO-11" target="-bUKo2dn0ouei72gZbrO-12" edge="1">
          <mxGeometry width="50" height="50" relative="1" as="geometry">
            <mxPoint x="520" y="770" as="sourcePoint" />
            <mxPoint x="610" y="600" as="targetPoint" />
          </mxGeometry>
        </mxCell>
        <mxCell id="-bUKo2dn0ouei72gZbrO-22" value="" style="endArrow=classic;html=1;rounded=0;entryX=0.5;entryY=0;entryDx=0;entryDy=0;exitX=0.5;exitY=1;exitDx=0;exitDy=0;" parent="1" source="-bUKo2dn0ouei72gZbrO-12" target="-bUKo2dn0ouei72gZbrO-13" edge="1">
          <mxGeometry width="50" height="50" relative="1" as="geometry">
            <mxPoint x="510" y="760" as="sourcePoint" />
            <mxPoint x="560" y="710" as="targetPoint" />
          </mxGeometry>
        </mxCell>
        <mxCell id="-bUKo2dn0ouei72gZbrO-23" value="" style="endArrow=classic;html=1;rounded=0;exitX=0.5;exitY=1;exitDx=0;exitDy=0;entryX=0.5;entryY=0;entryDx=0;entryDy=0;" parent="1" source="-bUKo2dn0ouei72gZbrO-11" target="-bUKo2dn0ouei72gZbrO-13" edge="1">
          <mxGeometry width="50" height="50" relative="1" as="geometry">
            <mxPoint x="1040" y="460" as="sourcePoint" />
            <mxPoint x="1090" y="410" as="targetPoint" />
          </mxGeometry>
        </mxCell>
        <mxCell id="-bUKo2dn0ouei72gZbrO-24" value="" style="endArrow=classic;html=1;rounded=0;exitX=0.5;exitY=1;exitDx=0;exitDy=0;" parent="1" source="-bUKo2dn0ouei72gZbrO-6" target="-bUKo2dn0ouei72gZbrO-7" edge="1">
          <mxGeometry width="50" height="50" relative="1" as="geometry">
            <mxPoint x="215" y="230" as="sourcePoint" />
            <mxPoint x="265" y="180" as="targetPoint" />
          </mxGeometry>
        </mxCell>
        <mxCell id="-bUKo2dn0ouei72gZbrO-25" value="" style="endArrow=classic;html=1;rounded=0;exitX=0.5;exitY=1;exitDx=0;exitDy=0;entryX=0.5;entryY=0;entryDx=0;entryDy=0;" parent="1" source="-bUKo2dn0ouei72gZbrO-7" target="-bUKo2dn0ouei72gZbrO-8" edge="1">
          <mxGeometry width="50" height="50" relative="1" as="geometry">
            <mxPoint x="255" y="300" as="sourcePoint" />
            <mxPoint x="305" y="250" as="targetPoint" />
          </mxGeometry>
        </mxCell>
        <mxCell id="-bUKo2dn0ouei72gZbrO-26" value="" style="endArrow=classic;html=1;rounded=0;exitX=0.5;exitY=1;exitDx=0;exitDy=0;entryX=0.5;entryY=0;entryDx=0;entryDy=0;" parent="1" source="-bUKo2dn0ouei72gZbrO-8" target="-bUKo2dn0ouei72gZbrO-9" edge="1">
          <mxGeometry width="50" height="50" relative="1" as="geometry">
            <mxPoint x="255" y="410" as="sourcePoint" />
            <mxPoint x="305" y="360" as="targetPoint" />
          </mxGeometry>
        </mxCell>
        <mxCell id="-bUKo2dn0ouei72gZbrO-27" value="" style="endArrow=classic;html=1;rounded=0;exitX=0.5;exitY=1;exitDx=0;exitDy=0;" parent="1" source="-bUKo2dn0ouei72gZbrO-9" target="-bUKo2dn0ouei72gZbrO-10" edge="1">
          <mxGeometry width="50" height="50" relative="1" as="geometry">
            <mxPoint x="255" y="430" as="sourcePoint" />
            <mxPoint x="305" y="380" as="targetPoint" />
          </mxGeometry>
        </mxCell>
        <mxCell id="-bUKo2dn0ouei72gZbrO-28" value="Known Errors" style="strokeWidth=2;html=1;shape=mxgraph.flowchart.database;whiteSpace=wrap;" parent="1" vertex="1">
          <mxGeometry x="240" y="300" width="110" height="80" as="geometry" />
        </mxCell>
        <mxCell id="-bUKo2dn0ouei72gZbrO-29" value="" style="endArrow=classic;html=1;rounded=0;" parent="1" source="-bUKo2dn0ouei72gZbrO-28" target="-bUKo2dn0ouei72gZbrO-8" edge="1">
          <mxGeometry width="50" height="50" relative="1" as="geometry">
            <mxPoint x="960" y="250" as="sourcePoint" />
            <mxPoint x="1010" y="200" as="targetPoint" />
          </mxGeometry>
        </mxCell>
        <mxCell id="-bUKo2dn0ouei72gZbrO-30" value="" style="endArrow=classic;html=1;rounded=0;entryX=0;entryY=0.5;entryDx=0;entryDy=0;" parent="1" source="-bUKo2dn0ouei72gZbrO-28" target="-bUKo2dn0ouei72gZbrO-9" edge="1">
          <mxGeometry width="50" height="50" relative="1" as="geometry">
            <mxPoint x="930" y="460" as="sourcePoint" />
            <mxPoint x="980" y="410" as="targetPoint" />
          </mxGeometry>
        </mxCell>
        <mxCell id="-bUKo2dn0ouei72gZbrO-31" value="" style="endArrow=classic;html=1;rounded=0;entryX=0.5;entryY=0;entryDx=0;entryDy=0;exitX=0.5;exitY=1;exitDx=0;exitDy=0;" parent="1" source="-bUKo2dn0ouei72gZbrO-10" target="-bUKo2dn0ouei72gZbrO-11" edge="1">
          <mxGeometry width="50" height="50" relative="1" as="geometry">
            <mxPoint x="500" y="540" as="sourcePoint" />
            <mxPoint x="550" y="490" as="targetPoint" />
          </mxGeometry>
        </mxCell>
        <mxCell id="-bUKo2dn0ouei72gZbrO-34" value="" style="endArrow=classic;html=1;rounded=0;exitX=0.5;exitY=1;exitDx=0;exitDy=0;entryX=0.5;entryY=0;entryDx=0;entryDy=0;" parent="1" source="-bUKo2dn0ouei72gZbrO-13" target="-bUKo2dn0ouei72gZbrO-14" edge="1">
          <mxGeometry width="50" height="50" relative="1" as="geometry">
            <mxPoint x="640" y="810" as="sourcePoint" />
            <mxPoint x="690" y="760" as="targetPoint" />
          </mxGeometry>
        </mxCell>
        <mxCell id="-bUKo2dn0ouei72gZbrO-35" value="" style="endArrow=classic;html=1;rounded=0;" parent="1" source="-bUKo2dn0ouei72gZbrO-14" target="-bUKo2dn0ouei72gZbrO-15" edge="1">
          <mxGeometry width="50" height="50" relative="1" as="geometry">
            <mxPoint x="730" y="730" as="sourcePoint" />
            <mxPoint x="780" y="680" as="targetPoint" />
          </mxGeometry>
        </mxCell>
        <mxCell id="-bUKo2dn0ouei72gZbrO-36" value="" style="endArrow=classic;html=1;rounded=0;" parent="1" source="-bUKo2dn0ouei72gZbrO-14" target="-bUKo2dn0ouei72gZbrO-16" edge="1">
          <mxGeometry width="50" height="50" relative="1" as="geometry">
            <mxPoint x="680" y="1060" as="sourcePoint" />
            <mxPoint x="730" y="1010" as="targetPoint" />
          </mxGeometry>
        </mxCell>
        <mxCell id="-bUKo2dn0ouei72gZbrO-37" value="" style="endArrow=classic;html=1;rounded=0;exitX=0.5;exitY=1;exitDx=0;exitDy=0;" parent="1" source="-bUKo2dn0ouei72gZbrO-15" target="-bUKo2dn0ouei72gZbrO-16" edge="1">
          <mxGeometry width="50" height="50" relative="1" as="geometry">
            <mxPoint x="740" y="1010" as="sourcePoint" />
            <mxPoint x="790" y="960" as="targetPoint" />
          </mxGeometry>
        </mxCell>
        <mxCell id="-bUKo2dn0ouei72gZbrO-38" value="" style="endArrow=classic;html=1;rounded=0;" parent="1" source="-bUKo2dn0ouei72gZbrO-16" target="-bUKo2dn0ouei72gZbrO-17" edge="1">
          <mxGeometry width="50" height="50" relative="1" as="geometry">
            <mxPoint x="710" y="1150" as="sourcePoint" />
            <mxPoint x="760" y="1100" as="targetPoint" />
          </mxGeometry>
        </mxCell>
        <mxCell id="-bUKo2dn0ouei72gZbrO-39" value="" style="endArrow=classic;html=1;rounded=0;" parent="1" source="-bUKo2dn0ouei72gZbrO-17" target="-bUKo2dn0ouei72gZbrO-18" edge="1">
          <mxGeometry width="50" height="50" relative="1" as="geometry">
            <mxPoint x="700" y="1130" as="sourcePoint" />
            <mxPoint x="750" y="1080" as="targetPoint" />
          </mxGeometry>
        </mxCell>
        <mxCell id="-bUKo2dn0ouei72gZbrO-40" value="Major Problem Review" style="rounded=0;whiteSpace=wrap;html=1;" parent="1" vertex="1">
          <mxGeometry x="600" y="1180" width="120" height="60" as="geometry" />
        </mxCell>
        <mxCell id="-bUKo2dn0ouei72gZbrO-41" value="" style="endArrow=classic;html=1;rounded=0;" parent="1" source="-bUKo2dn0ouei72gZbrO-18" target="-bUKo2dn0ouei72gZbrO-40" edge="1">
          <mxGeometry width="50" height="50" relative="1" as="geometry">
            <mxPoint x="740" y="1070" as="sourcePoint" />
            <mxPoint x="790" y="1020" as="targetPoint" />
          </mxGeometry>
        </mxCell>
        <mxCell id="-bUKo2dn0ouei72gZbrO-42" value="End" style="rounded=1;whiteSpace=wrap;html=1;" parent="1" vertex="1">
          <mxGeometry x="415" y="1280" width="120" height="60" as="geometry" />
        </mxCell>
        <mxCell id="-bUKo2dn0ouei72gZbrO-43" value="" style="endArrow=classic;html=1;rounded=0;" parent="1" source="-bUKo2dn0ouei72gZbrO-18" target="-bUKo2dn0ouei72gZbrO-42" edge="1">
          <mxGeometry width="50" height="50" relative="1" as="geometry">
            <mxPoint x="230" y="1290" as="sourcePoint" />
            <mxPoint x="280" y="1240" as="targetPoint" />
          </mxGeometry>
        </mxCell>
        <mxCell id="-bUKo2dn0ouei72gZbrO-44" value="" style="endArrow=classic;html=1;rounded=0;" parent="1" source="-bUKo2dn0ouei72gZbrO-40" target="-bUKo2dn0ouei72gZbrO-42" edge="1">
          <mxGeometry width="50" height="50" relative="1" as="geometry">
            <mxPoint x="690" y="1350" as="sourcePoint" />
            <mxPoint x="740" y="1300" as="targetPoint" />
          </mxGeometry>
        </mxCell>
        <mxCell id="-bUKo2dn0ouei72gZbrO-45" value="CMS" style="strokeWidth=2;html=1;shape=mxgraph.flowchart.database;whiteSpace=wrap;" parent="1" vertex="1">
          <mxGeometry x="240" y="430" width="105" height="80" as="geometry" />
        </mxCell>
        <mxCell id="-bUKo2dn0ouei72gZbrO-46" value="" style="endArrow=classic;html=1;rounded=0;" parent="1" source="-bUKo2dn0ouei72gZbrO-47" target="-bUKo2dn0ouei72gZbrO-45" edge="1">
          <mxGeometry width="50" height="50" relative="1" as="geometry">
            <mxPoint x="20" y="570" as="sourcePoint" />
            <mxPoint x="90" y="520" as="targetPoint" />
          </mxGeometry>
        </mxCell>
        <mxCell id="-bUKo2dn0ouei72gZbrO-47" value="Knowledge Management" style="verticalLabelPosition=middle;verticalAlign=top;html=1;shape=offPageConnector;rounded=0;size=0.5;" parent="1" vertex="1">
          <mxGeometry x="40" y="430" width="130" height="80" as="geometry" />
        </mxCell>
        <mxCell id="-bUKo2dn0ouei72gZbrO-48" value="" style="endArrow=classic;html=1;rounded=0;" parent="1" source="-bUKo2dn0ouei72gZbrO-45" target="-bUKo2dn0ouei72gZbrO-10" edge="1">
          <mxGeometry width="50" height="50" relative="1" as="geometry">
            <mxPoint x="850" y="470" as="sourcePoint" />
            <mxPoint x="900" y="420" as="targetPoint" />
          </mxGeometry>
        </mxCell>
      </root>
    </mxGraphModel>
  </diagram>
</mxfile>
